inDegrees=no
num_controls=7
num_derivatives=13
num_iterations=91
num_multipliers=7
num_parameters=0
num_slacks=7
num_states=26
objective=0.409091
objective_accelerations=0.031769
objective_balance=0.006257
objective_effort=0.028055
objective_height=0.338036
objective_ligament=0.004974
solver_duration=1251.801415
status=Solve_Succeeded
success=true
DataType=double
version=3
OpenSimVersion=4.5
endheader
time	/jointset/ground_pelvis/pelvis_tilt/value	/jointset/ground_pelvis/pelvis_tx/value	/jointset/ground_pelvis/pelvis_ty/value	/jointset/hip_l/hip_flexion_l/value	/jointset/hip_l/hip_adduction_l/value	/jointset/hip_l/hip_rotation_l/value	/jointset/back/lumbar_extension/value	/jointset/patellofemoral_l/patellar_flexion_l/value	/jointset/knee_l/knee_flexion_l/value	/jointset/knee_l/knee_adduction_l/value	/jointset/knee_l/knee_rotation_l/value	/jointset/ankle_l/ankle_angle_l/value	/jointset/subtalar_l/subtalar_angle_l/value	/jointset/ground_pelvis/pelvis_tilt/speed	/jointset/ground_pelvis/pelvis_tx/speed	/jointset/ground_pelvis/pelvis_ty/speed	/jointset/hip_l/hip_flexion_l/speed	/jointset/hip_l/hip_adduction_l/speed	/jointset/hip_l/hip_rotation_l/speed	/jointset/back/lumbar_extension/speed	/jointset/patellofemoral_l/patellar_flexion_l/speed	/jointset/knee_l/knee_flexion_l/speed	/jointset/knee_l/knee_adduction_l/speed	/jointset/knee_l/knee_rotation_l/speed	/jointset/ankle_l/ankle_angle_l/speed	/jointset/subtalar_l/subtalar_angle_l/speed	/forceset/tau_hip_flexion_l	/forceset/tau_hip_adduction_l	/forceset/tau_hip_rotation_l	/forceset/tau_knee_flexion_l	/forceset/tau_ankle_angle_l	/forceset/tau_subtalar_angle_l	/forceset/tau_lumbar_extension	lambda_cid13_p0	lambda_cid13_p1	lambda_cid13_p2	lambda_cid13_p3	lambda_cid13_p4	lambda_cid13_p5	lambda_cid14_p0	/jointset/ground_pelvis/pelvis_tilt/accel	/jointset/ground_pelvis/pelvis_tx/accel	/jointset/ground_pelvis/pelvis_ty/accel	/jointset/hip_l/hip_flexion_l/accel	/jointset/hip_l/hip_adduction_l/accel	/jointset/hip_l/hip_rotation_l/accel	/jointset/back/lumbar_extension/accel	/jointset/patellofemoral_l/patellar_flexion_l/accel	/jointset/knee_l/knee_flexion_l/accel	/jointset/knee_l/knee_adduction_l/accel	/jointset/knee_l/knee_rotation_l/accel	/jointset/ankle_l/ankle_angle_l/accel	/jointset/subtalar_l/subtalar_angle_l/accel	gamma_cid13_p0	gamma_cid13_p1	gamma_cid13_p2	gamma_cid13_p3	gamma_cid13_p4	gamma_cid13_p5	gamma_cid14_p0
1	-0.5096209977153693	-0.0779920099363937	0.687233850737455	1.564507804991422	-0.3042402121918869	0.07100003299835925	-0.4363247346935973	1.011081022710846	1.011081022710902	-0.1744668497330409	0.1744953686667323	0.1447163549647499	-0.02511982600794375	-0.01096332173435415	0.0008919327701908327	-0.002997221416976138	0.0164567982458491	0.0003590114409963889	0.003124072878496186	-0.001091817635804272	0.008683740043402801	0.008683740043403512	-7.054581799023847e-05	0.0001342351708381554	0.003829715773131008	0.001097162968413977	-0.3500397770722182	0.03586978796762486	-0.02270139513744845	-0.2472422737935546	0.08326518931962743	0.03479193351616949	0.3025484188285593	-17.40108593810296	-13.05554173051502	2.812332848069536	9.574550627033647	-699.783310329559	-45.13213932640466	-8.502063200083684	1.50538753183814	0.2106128454084406	1.211131540668573	-4.870443768603429	-0.1826750871730793	-1.425443854594808	0.08112508344847014	-3.999455830025766	-3.999455830027221	-0.02461707001169988	0.00749107814664482	-0.892715994068354	-0.3424738235502619	1.573997246178328e-09	2.532566704872161e-09	-4.404509629714681e-09	-2.007062449499258e-09	1.041783062999701e-09	-4.09157045425626e-11	9.335245305961975e-10
1.01	-0.5096558795406688	-0.07797265513070802	0.6872643380890894	1.564429662690563	-0.3042451365100949	0.07095951310787545	-0.4363313581939833	1.010968089309998	1.010968089310057	-0.1744673328626528	0.1744966521891285	0.1447100802205823	-0.0251252634698722	0.003991226469368871	0.002973703045735206	0.009094477395698549	-0.03208718149283833	-0.001340684187669319	-0.01122816930474907	-0.0002730398836748836	-0.03128178158723973	-0.03128178158727341	-2.430680600549865e-05	0.0001161733518622232	-0.005098490885260045	-0.002183682167443469	-0.3497025667736673	0.03587734463992414	-0.02271184795968931	-0.2472908268382318	0.0832921672056401	0.03477990650395898	0.3022412045117113	-17.38108566544852	-13.05451028792496	2.812956586782889	9.621080131179554	-699.5497310608839	-45.14268428716021	-8.509105015741834	1.491128737306939	0.2061606436828736	1.208156053737945	-4.846663833338331	-0.1631393865365603	-1.440134333394404	0.07623050430840432	-3.996804070394117	-3.99680407039834	0.01950961042469802	-0.00740180130801286	-0.8949469464329285	-0.3207444572465647	-2.176496916615844e-09	-4.994135630817507e-09	1.164796735786348e-08	1.580018887872008e-09	-4.175332568472976e-09	2.56355661379829e-09	-2.293903974597541e-09
1.02	-0.5095410878293983	-0.07793264231725575	0.6874157358292844	1.563866022840957	-0.3042669623017538	0.07077546680891926	-0.4363309986402131	1.010455159944681	1.010455159944739	-0.1744673005574225	0.1744975656954598	0.1446141086208892	-0.02516348030288784	0.01897138557979578	0.005023534323509035	0.021184856295207	-0.08064271150500008	-0.003021283249265659	-0.02558120881619567	0.0003047931969803421	-0.07131545285030866	-0.07131545285036918	3.254115082470253e-05	6.023195735399403e-05	-0.01410965533199011	-0.005458711249024361	-0.3493653564750786	0.03588490131222989	-0.02272230078192019	-0.2473393798829136	0.0833191450916477	0.03476787949175481	0.3019339901949036	-17.36928010025979	-13.0530371031029	2.814644151307551	9.695135523092501	-699.4232755238817	-45.13731406280202	-8.540939764918058	1.510509713178928	0.2042250458543272	1.210867558035323	-4.872753823298291	-0.1788557737592064	-1.42560332023508	0.03293614915343841	-4.013085756511039	-4.013085756510987	-0.02249528104260673	-8.483695981203023e-05	-0.909307551736163	-0.341310612694953	-5.911921092113043e-09	-1.268658928101279e-08	2.897045180730124e-08	4.657519848900979e-09	-7.880502179981008e-09	6.308287622703524e-09	-5.945362914595487e-09
1.03	-0.5092768688911906	-0.07787210025223813	0.6876879388878427	1.562817258353283	-0.3043054997246161	0.07044798067652588	-0.4363241406391583	1.009541864378916	1.009541864378951	-0.1744667050818015	0.1744978157935714	0.1444279533457226	-0.02523434854429612	0.03382536599971991	0.007098596073786508	0.03324627942502826	-0.1290623213007552	-0.004683382990780755	-0.03990835237325716	0.001220494969283174	-0.111324053173096	-0.1113240531731894	8.331393169803825e-05	-6.667746662976845e-06	-0.02310121987523369	-0.008707346914958529	-0.3499347167340176	0.03603240627518527	-0.02270355206975887	-0.2468531882491575	0.08314425128356318	0.03487256187980817	0.3025727691940022	-17.42846198010067	-13.0971822809057	2.832012496074023	9.515181293565458	-699.651674727555	-45.15261573778115	-8.597600976237105	1.465786105791647	0.2112059132544499	1.202355955330698	-4.819385833657014	-0.1594691253768446	-1.435128797876977	0.143940386185501	-3.991804158337705	-3.991804158342693	0.01837441313614823	-0.009471151996326433	-0.8910541901547165	-0.3155037086440797	-9.647191492229661e-09	-2.038073427115201e-08	4.630589551655389e-08	7.729821010171353e-09	-1.157024377087714e-08	1.006465392436963e-08	-9.601148695764909e-09
